<?xml version="1.0" standalone="no"?>
<!DOCTYPE svg PUBLIC "-//W3C//DTD SVG 20010904//EN"
 "http://www.w3.org/TR/2001/REC-SVG-20010904/DTD/svg10.dtd">
<svg version="1.0" xmlns="http://www.w3.org/2000/svg"
 width="1280.000000pt" height="1261.000000pt" viewBox="0 0 1280.000000 1261.000000"
 preserveAspectRatio="xMidYMid meet">

<g transform="translate(0.000000,1261.000000) scale(0.100000,-0.100000)"
fill="#000000" stroke="none">
<path d="M5550 10784 c0 -6 7 -19 16 -30 14 -18 14 -18 3 6 -14 31 -19 36 -19
24z"/>
<path d="M5556 10577 c3 -10 9 -15 12 -12 3 3 0 11 -7 18 -10 9 -11 8 -5 -6z"/>
<path d="M6295 10513 c4 -10 10 -26 13 -37 3 -10 20 -44 39 -74 18 -31 33 -63
34 -71 0 -9 2 -23 4 -31 6 -27 35 -195 35 -201 0 -15 63 -28 170 -34 112 -7
138 -10 268 -38 45 -10 65 -11 67 -3 2 6 9 54 15 106 16 126 42 220 85 304 19
38 33 72 30 74 -6 7 -417 21 -619 21 -137 1 -148 0 -141 -16z"/>
<path d="M5500 10509 c-41 -5 -142 -16 -225 -24 -434 -45 -656 -86 -705 -130
-22 -20 -32 -19 -28 3 2 14 -5 17 -41 17 -39 0 -47 -4 -62 -30 -28 -47 -47
-161 -74 -425 -33 -326 -46 -568 -52 -965 -3 -181 -8 -333 -12 -337 -3 -3 -53
0 -111 8 -72 10 -191 14 -375 13 -148 -1 -344 4 -435 10 -457 30 -896 43
-1475 45 -546 1 -618 -1 -688 -16 -43 -10 -94 -29 -115 -43 -28 -19 -50 -25
-89 -25 -51 0 -53 -1 -54 -27 0 -16 0 -1065 1 -2333 1 -1268 1 -2333 0 -2368
-3 -134 -3 -134 327 -125 142 4 438 7 658 8 220 1 694 4 1053 8 635 6 655 6
705 -13 68 -26 74 -25 92 10 19 38 48 39 115 5 56 -28 111 -32 130 -10 17 21
54 19 75 -5 20 -22 45 -26 61 -10 8 8 15 6 24 -5 16 -19 54 -20 69 -1 6 7 18
37 27 65 14 50 26 62 39 40 4 -5 19 -9 33 -7 l27 3 7 -105 c3 -58 11 -364 17
-680 15 -783 30 -928 102 -966 16 -8 29 -18 29 -23 0 -42 414 -88 584 -65 45
7 46 7 46 43 0 20 7 79 14 131 8 52 24 160 36 240 12 80 28 155 36 167 18 28
138 129 179 151 17 8 51 20 77 26 l46 11 -32 35 c-18 19 -42 40 -52 46 -10 6
-23 24 -29 41 -5 16 -31 54 -58 84 -51 58 -70 105 -72 182 -1 33 -7 51 -21 61
-16 12 -16 16 -4 31 12 14 11 26 -4 84 -22 85 -19 125 11 129 17 3 28 -9 58
-67 21 -39 41 -68 46 -65 5 3 9 -4 9 -15 0 -11 4 -23 10 -26 5 -3 14 -24 20
-47 7 -22 22 -58 36 -79 25 -41 31 -78 13 -96 -23 -23 64 -165 92 -147 4 2 13
-6 20 -18 12 -22 12 -22 20 -3 7 17 7 16 6 -6 -1 -30 37 -83 92 -127 42 -34
81 -42 81 -17 0 8 -3 15 -8 15 -9 0 -48 37 -82 77 -33 38 -57 80 -79 136 -8
19 -18 27 -35 27 -18 0 -24 -4 -20 -15 4 -9 0 -15 -10 -15 -14 0 -56 66 -56
90 0 20 48 10 71 -15 39 -41 81 -63 119 -61 48 2 53 34 10 60 -36 21 -71 72
-63 92 8 22 -44 17 -56 -5 -6 -10 -9 -20 -8 -23 1 -2 -15 14 -35 36 -21 23
-51 55 -67 71 -26 27 -27 32 -14 51 13 20 11 24 -23 58 -35 35 -36 37 -19 56
24 26 33 25 62 -7 22 -25 24 -25 13 -4 -6 12 -9 32 -7 43 3 11 -8 54 -24 96
-17 41 -29 87 -27 101 1 14 -1 31 -5 38 -4 6 -10 45 -14 87 -6 72 -4 78 22
116 29 43 80 90 95 90 5 0 3 -19 -5 -41 -18 -50 -19 -173 -2 -212 9 -22 26
-33 67 -48 66 -23 102 -24 146 -3 46 22 74 60 74 99 0 18 6 48 14 66 7 19 17
50 20 69 7 33 6 34 -8 16 -19 -24 -25 -19 -28 25 -3 28 0 34 17 34 11 0 23 7
27 15 8 19 10 55 2 47 -10 -10 -62 21 -68 40 -2 10 -8 34 -11 53 -4 19 -16 61
-26 92 -10 32 -19 71 -19 88 0 16 -4 30 -10 30 -5 0 -8 12 -5 28 2 15 6 70 9
122 6 105 -1 105 -35 0 -65 -205 -76 -219 -176 -250 -79 -24 -120 -47 -106
-61 7 -7 42 1 131 27 29 8 28 -1 -5 -45 -52 -70 -75 -91 -90 -80 -23 20 -46 2
-40 -31 5 -24 1 -33 -25 -55 -35 -29 -91 -55 -120 -55 -11 0 -31 -9 -45 -20
-30 -24 -43 -25 -43 -6 0 8 -4 18 -10 21 -15 9 -90 -17 -104 -36 -14 -21 -57
-39 -91 -39 -27 0 -42 -17 -28 -31 5 -5 32 -3 66 6 32 8 60 15 61 15 13 0 13
-36 -1 -72 -12 -33 -16 -81 -17 -203 -1 -95 -6 -167 -12 -178 -10 -17 -13 -16
-37 13 -15 17 -27 38 -27 46 0 8 -4 14 -9 14 -14 0 -70 93 -77 128 -4 18 -12
32 -18 32 -11 0 -40 56 -61 120 -22 67 -48 112 -70 120 -20 7 -23 18 -29 82
-4 40 -2 107 3 149 12 88 40 209 50 209 3 0 7 24 8 52 3 89 10 129 29 149 9
10 22 29 28 41 7 14 54 40 144 79 165 70 196 96 158 128 -10 9 -38 0 -122 -38
-156 -70 -149 -69 -167 -23 -8 21 -18 54 -22 74 l-7 35 139 5 c158 6 188 15
179 56 -3 15 -8 43 -10 62 -3 19 -13 40 -23 48 -25 19 -115 62 -131 62 -7 0
-15 7 -19 16 -4 11 -8 12 -13 4 -6 -10 -19 -10 -59 0 -56 13 -81 4 -81 -30 0
-26 18 -36 102 -58 84 -21 149 -51 156 -70 3 -9 -31 -12 -127 -12 -72 0 -131
3 -131 8 0 4 -11 79 -25 167 -43 268 -45 297 -34 397 6 51 14 122 17 158 8 71
2 66 84 69 24 1 27 5 30 44 l3 42 43 1 c47 1 55 -7 66 -68 8 -44 43 -74 159
-137 42 -23 77 -47 77 -52 0 -5 6 -9 13 -9 29 0 257 -143 263 -165 2 -5 -15
-22 -36 -37 -22 -15 -40 -34 -40 -42 0 -23 58 -62 140 -96 85 -35 123 -37 167
-10 63 38 151 186 139 234 -8 34 -21 34 -190 -9 -77 -19 -141 -33 -143 -31 -3
2 7 12 22 23 14 10 40 30 58 45 18 15 35 28 39 28 3 0 30 16 59 35 30 19 59
35 67 35 7 0 23 6 35 14 12 8 38 17 57 21 19 3 67 17 106 31 38 13 83 24 100
25 28 1 39 4 97 28 44 17 99 13 230 -18 119 -29 196 -58 247 -94 24 -17 23
-17 -70 -17 -114 0 -264 -18 -286 -35 -26 -19 -11 -55 48 -113 39 -39 67 -57
108 -69 30 -9 62 -22 70 -29 9 -7 23 -8 35 -4 11 5 30 9 43 9 28 1 118 75 138
112 7 15 14 43 16 64 2 38 27 65 60 65 9 0 21 6 25 14 4 7 49 35 98 61 50 27
126 73 170 103 124 85 287 182 304 182 9 0 34 7 56 15 22 8 61 14 86 15 l47 0
6 -77 c23 -298 15 -631 -19 -794 -12 -60 -30 -122 -40 -137 -1 -1 -27 7 -59
18 -31 10 -85 24 -119 31 -70 12 -103 27 -91 39 12 11 201 60 232 60 51 0 80
38 50 68 -18 18 -66 15 -169 -12 -52 -13 -120 -27 -152 -31 -48 -6 -60 -12
-69 -31 -14 -30 4 -54 39 -54 22 0 23 -1 9 -16 -22 -21 -20 -51 4 -64 11 -6
81 -26 156 -44 74 -19 138 -36 141 -39 3 -4 2 -18 -1 -32 -5 -18 -12 -25 -24
-21 -9 2 -42 11 -73 20 -30 8 -75 29 -99 45 -50 33 -80 28 -80 -14 0 -35 52
-70 158 -104 90 -30 142 -56 142 -71 0 -4 13 -22 29 -39 15 -16 34 -45 40 -63
7 -18 22 -55 33 -83 22 -52 24 -59 53 -140 10 -27 24 -67 32 -89 33 -90 103
-352 113 -423 10 -64 9 -85 -3 -118 -15 -42 -50 -64 -40 -26 8 30 -12 26 -25
-4 -16 -34 -15 -38 3 -31 21 8 29 -17 16 -43 -6 -11 -34 -47 -61 -80 -48 -58
-61 -93 -40 -106 24 -15 3 -48 -92 -142 -206 -201 -344 -327 -399 -363 -31
-20 -74 -53 -95 -73 -34 -32 -37 -38 -24 -50 8 -8 30 -17 49 -21 34 -6 34 -6
16 14 -10 11 -15 20 -11 20 21 0 179 -62 192 -75 17 -17 49 -21 39 -5 -16 26
16 5 77 -50 l66 -60 31 -130 c18 -74 31 -158 32 -197 0 -37 8 -113 17 -168
l18 -100 114 0 c222 1 603 39 720 71 126 36 139 67 151 369 5 121 13 539 18
929 7 570 12 710 22 717 9 5 17 2 23 -9 20 -37 67 -55 81 -32 4 6 -9 34 -29
63 -50 73 -68 129 -61 196 2 31 1 80 -4 109 -4 28 -7 52 -5 52 2 0 26 -33 54
-74 30 -46 80 -101 130 -143 44 -37 80 -71 80 -75 0 -16 -115 -138 -130 -138
-12 0 -17 -10 -18 -35 -2 -39 -5 -38 86 -26 37 6 92 13 123 16 53 6 57 8 63
36 4 22 11 30 23 27 22 -4 27 -23 9 -40 -12 -13 -5 -16 57 -26 89 -14 112 -3
128 63 6 25 16 48 21 51 5 4 45 1 89 -6 74 -12 79 -14 73 -34 -12 -38 -10 -51
10 -51 15 0 23 13 34 54 12 41 13 56 4 59 -7 2 -13 13 -13 25 -1 18 -2 19 -6
4 -4 -16 -7 -17 -21 -4 -10 8 -48 20 -85 26 -38 7 -93 21 -123 32 -52 20 -55
23 -52 52 3 30 5 32 43 31 22 0 86 -16 143 -34 92 -29 105 -31 118 -18 11 11
14 25 9 51 -6 33 -11 36 -58 48 -29 7 -83 23 -121 36 -38 12 -80 23 -93 23
-27 0 -41 25 -26 49 13 21 69 16 138 -11 54 -22 148 -48 170 -48 10 0 14 12
14 43 -1 23 11 121 26 217 38 244 41 290 22 290 -9 0 -19 -5 -22 -10 -4 -6
-16 -3 -32 10 -30 24 -52 25 -79 5 -33 -25 -37 -17 -31 53 10 99 -28 504 -59
625 -13 54 -24 107 -24 117 0 11 -9 28 -20 37 -26 23 -25 29 10 108 l30 66 74
-67 c52 -47 74 -74 73 -88 -3 -31 58 -36 68 -7 7 24 18 27 34 8 8 -10 5 -22
-14 -46 -32 -44 -49 -55 -116 -75 -31 -8 -62 -23 -70 -32 -11 -14 -9 -15 27
-8 21 3 48 12 59 17 11 6 22 12 25 12 50 9 74 22 99 52 29 35 51 37 51 5 1 -9
7 -30 15 -47 l13 -30 -5 39 c-7 48 11 46 45 -4 31 -46 28 -64 -18 -119 -41
-48 -49 -78 -28 -99 9 -9 5 -19 -20 -45 -18 -18 -32 -38 -32 -44 0 -19 20 -26
35 -13 8 7 21 10 30 7 15 -6 36 10 62 49 21 33 28 30 41 -14 6 -21 27 -56 47
-79 40 -47 42 -53 17 -53 -48 0 -55 -54 -14 -108 19 -24 30 -51 31 -75 l2 -38
-81 -37 -82 -37 7 -55 c4 -30 10 -71 14 -90 22 -123 -9 -575 -51 -729 -16 -61
-17 -75 -6 -82 23 -15 33 -4 36 40 2 23 9 44 16 47 7 3 59 -7 115 -21 69 -18
112 -24 134 -19 18 4 93 9 167 11 74 2 151 4 170 5 19 0 76 -3 125 -7 74 -6
94 -12 115 -31 35 -32 78 -39 123 -21 31 13 37 14 48 1 6 -8 19 -14 28 -14 23
0 63 43 52 56 -14 14 -24 722 -11 780 14 65 30 104 43 104 33 0 77 88 77 156
0 52 -11 61 -160 135 -76 37 -135 41 -189 13 -22 -12 -24 -18 -22 -70 l3 -57
-114 6 c-108 7 -206 30 -263 64 -17 10 -18 14 -7 38 9 20 9 31 0 48 -14 26
-36 120 -37 159 -1 18 -10 33 -26 44 -14 9 -25 24 -25 34 0 11 -25 43 -55 74
-30 30 -55 61 -55 69 0 8 -7 21 -17 28 -50 42 -67 171 -38 294 8 33 17 93 21
133 4 39 10 72 14 72 4 0 18 9 31 21 l24 21 6 -74 c3 -40 13 -88 23 -106 33
-63 123 -96 190 -68 45 19 71 61 93 154 17 74 38 100 69 88 17 -7 19 10 2 20
-6 4 -66 13 -132 19 -112 11 -244 6 -300 -11 -16 -5 -18 -2 -13 18 4 13 9 50
13 81 4 31 12 57 18 58 6 0 81 0 166 0 85 -1 169 3 185 8 21 6 -28 10 -164 10
l-194 1 7 53 c6 47 43 118 80 152 6 6 20 26 30 45 53 98 84 158 94 189 7 19
14 32 17 29 10 -10 32 -147 24 -150 -4 -2 -28 -55 -52 -118 l-43 -115 -52 0
c-41 1 -52 -3 -52 -15 0 -11 11 -17 38 -18 20 -1 49 -5 65 -8 16 -3 27 -1 27
5 0 6 14 18 31 27 38 19 73 57 99 107 11 20 23 37 25 37 3 0 19 -28 36 -62 20
-39 61 -93 110 -144 44 -44 79 -87 79 -96 0 -8 -11 -32 -25 -53 -14 -20 -29
-51 -32 -69 -3 -17 -21 -50 -40 -74 -32 -39 -38 -72 -14 -72 5 0 24 18 42 41
18 23 51 49 73 59 23 10 50 25 61 33 18 14 23 12 64 -25 33 -29 51 -38 66 -33
11 4 32 9 48 12 l27 5 0 -72 c0 -56 5 -81 22 -111 47 -85 164 -93 235 -17 23
24 63 126 63 160 0 10 4 18 8 18 5 0 12 -64 16 -142 l6 -143 -35 -30 c-60 -52
-40 -110 26 -75 24 14 24 15 -10 -61 -34 -74 -85 -126 -193 -198 -43 -28 -78
-54 -78 -57 0 -3 6 -2 13 3 14 9 87 12 87 3 0 -3 -13 -19 -30 -35 -31 -30 -40
-65 -17 -65 13 0 94 80 215 214 66 74 76 71 38 -9 -31 -67 -97 -149 -146 -181
-22 -15 -40 -35 -40 -44 0 -10 -18 -32 -39 -50 -48 -37 -60 -66 -37 -88 13
-14 20 -14 34 -4 30 22 46 26 50 14 11 -34 111 6 204 82 l56 45 12 -47 c6 -26
16 -52 22 -59 17 -21 46 -15 64 12 14 22 15 33 4 89 -10 53 -9 83 4 177 9 63
20 123 23 134 6 19 6 19 13 -1 16 -41 23 -154 11 -168 -9 -10 -8 -15 4 -20 27
-10 15 -233 -20 -372 -18 -68 -63 -168 -92 -203 l-19 -24 -61 21 c-71 25 -189
45 -204 36 -6 -3 -8 -17 -4 -31 18 -72 -2 -554 -31 -745 -18 -114 -14 -152 14
-167 29 -15 45 1 32 33 -5 15 -10 38 -10 51 0 23 1 23 30 9 32 -16 74 -10 67
9 -7 20 12 47 33 47 11 0 66 20 122 45 111 49 138 54 159 29 12 -14 9 -20 -16
-41 -57 -46 -150 -83 -210 -83 -52 0 -55 -1 -55 -25 0 -14 5 -25 10 -25 6 0
10 -9 10 -20 0 -16 7 -20 31 -20 25 0 32 -6 45 -35 8 -19 17 -35 20 -35 2 0
18 10 34 21 33 25 60 19 60 -13 l0 -22 21 23 c16 17 30 22 55 19 32 -4 32 -3
27 27 -8 41 -23 60 -34 43 -12 -18 -11 -6 6 87 20 115 38 152 81 170 20 8 38
15 40 15 12 0 -2 -37 -46 -123 -56 -108 -62 -143 -28 -156 19 -7 27 -3 47 23
l23 31 -6 -32 c-5 -29 -3 -33 17 -33 12 0 39 -3 59 -6 l37 -6 -12 31 c-13 36
-22 39 -30 10 -8 -29 -41 -21 -45 11 -2 13 3 29 10 34 8 6 20 20 26 32 17 32
146 349 176 434 15 41 33 88 41 105 7 16 30 84 49 149 38 125 45 206 25 265
-6 17 -8 43 -5 57 7 24 8 25 25 10 23 -21 50 -20 58 1 4 9 -1 54 -11 99 -9 46
-21 156 -26 246 -5 90 -12 178 -16 197 -4 19 -1 332 6 695 15 754 17 726 -65
831 -25 32 -45 64 -45 72 0 7 -5 13 -12 13 -6 0 -34 21 -62 48 -28 26 -67 59
-86 74 -34 26 -35 27 -15 41 26 20 94 30 140 21 33 -6 35 -5 35 22 0 16 -4 35
-9 43 -20 31 -198 41 -266 15 -49 -20 -61 -20 -102 -3 -29 12 -36 11 -74 -10
l-42 -24 -35 44 c-89 109 -249 220 -362 249 -25 7 -60 23 -78 36 -66 51 -116
55 -161 13 -27 -26 -59 -27 -251 -7 -100 10 -129 9 -207 -5 -197 -36 -334
-105 -478 -239 -71 -67 -88 -78 -118 -78 -40 0 -47 11 -47 76 0 32 -5 46 -16
51 -22 8 -36 -16 -30 -55 3 -23 1 -32 -7 -29 -7 3 -11 10 -9 16 4 19 -17 51
-34 51 -8 0 -38 13 -67 29 -28 17 -83 38 -121 47 -85 21 -154 10 -255 -41
-156 -79 -451 -328 -451 -381 0 -33 25 -31 80 6 25 16 50 30 56 30 6 0 29 12
50 27 45 30 144 83 157 83 5 0 -18 -31 -51 -69 -90 -104 -253 -346 -315 -468
-21 -40 -33 -35 -43 17 -7 31 -6 34 9 22 13 -11 15 -10 10 7 -3 12 -9 21 -13
21 -4 0 -10 9 -13 21 -4 16 -3 18 9 8 11 -9 14 -8 14 6 0 10 -6 26 -14 34 -8
9 -18 38 -22 66 -6 46 -6 49 9 36 15 -11 17 -11 17 2 0 8 -6 17 -12 19 -16 6
-19 71 -4 80 8 6 8 13 -2 29 -18 28 -28 164 -14 173 8 5 8 15 1 34 -6 15 -9
57 -7 94 1 37 -1 70 -5 74 -12 12 -8 34 8 50 16 16 11 87 -7 111 -17 22 7 572
28 642 8 25 14 56 14 69 0 12 4 22 10 22 5 0 10 10 9 23 0 12 4 112 8 222 12
303 9 924 -5 958 -7 17 -26 34 -47 43 l-35 14 -1 208 c0 260 -10 365 -34 392
-56 62 -341 122 -697 145 -98 7 -115 2 -83 -25 9 -7 13 -21 10 -31 -5 -14 -2
-17 8 -13 11 4 21 -12 37 -61 26 -78 34 -199 19 -288 -5 -34 -10 -73 -11 -86
0 -17 -3 -20 -11 -12 -13 13 -64 -119 -107 -276 l-27 -101 29 21 c27 20 31 20
56 6 37 -20 40 -53 8 -74 l-25 -17 20 -21 c11 -12 17 -28 14 -35 -3 -8 -1 -29
4 -46 12 -37 35 -221 33 -253 -1 -13 3 -23 8 -23 6 0 10 -14 10 -31 0 -16 4
-28 9 -25 5 3 7 19 5 35 -12 104 -23 245 -19 249 2 2 19 -20 38 -49 19 -30 47
-65 61 -78 33 -31 33 -38 -4 -46 -58 -13 -45 -27 20 -24 44 3 64 0 67 -8 3 -8
-5 -13 -23 -13 -27 0 -27 0 12 -28 59 -43 114 -109 140 -167 25 -58 30 -62 87
-86 48 -19 48 -35 0 -30 -30 2 -35 0 -27 -10 34 -44 66 -190 45 -204 -6 -3
-11 -19 -11 -35 0 -25 -4 -29 -22 -27 -33 3 -45 25 -51 89 -2 34 -11 63 -21
73 -15 15 -16 11 -16 -57 0 -40 -4 -90 -9 -110 -8 -36 -7 -38 15 -38 27 0 37
-17 65 -101 18 -56 19 -64 5 -152 -9 -50 -29 -132 -46 -181 -31 -92 -38 -132
-20 -121 17 11 50 -5 50 -24 0 -10 -7 -35 -15 -56 -15 -34 -15 -39 6 -81 12
-25 19 -48 15 -51 -3 -3 -2 -11 3 -17 4 -6 18 -38 30 -71 12 -33 31 -75 42
-93 12 -22 16 -39 11 -50 -5 -9 -8 -32 -7 -51 2 -27 8 -36 33 -46 36 -16 49
-37 58 -95 5 -31 4 -41 -4 -36 -7 4 -12 3 -12 -2 0 -6 7 -12 15 -16 10 -3 15
-19 15 -42 0 -24 8 -46 26 -67 21 -25 25 -38 21 -72 -2 -22 -15 -58 -28 -80
-13 -21 -24 -53 -25 -70 0 -16 -4 -51 -8 -77 -6 -42 -10 -47 -29 -44 -14 2
-29 -4 -40 -18 -16 -20 -18 -20 -31 -3 -13 17 -15 16 -36 -13 -21 -29 -53 -40
-65 -20 -7 12 -148 12 -221 0 -33 -6 -64 -5 -77 0 -19 8 -91 18 -257 35 -83 9
-195 27 -207 34 -8 4 -3 20 18 51 67 99 155 304 143 335 -4 8 -2 15 4 15 10 0
17 31 27 109 4 39 15 54 15 23 0 -20 5 -22 50 -22 28 0 50 4 50 8 0 4 14 16
30 25 26 16 30 24 30 60 0 39 -5 47 -71 110 l-71 68 7 49 c5 37 11 50 23 51
16 0 16 1 1 11 -14 9 -15 16 -6 35 5 13 15 23 20 23 6 0 1 10 -11 23 -11 12
-28 38 -36 57 l-15 35 -2 -45 c-3 -82 -7 -109 -25 -185 -4 -16 -3 -17 5 -5 12
16 11 2 -10 -175 -14 -111 -38 -251 -50 -282 -5 -14 -5 -23 1 -23 6 0 10 -4
10 -10 0 -5 -7 -10 -16 -10 -14 0 -15 7 -10 38 4 20 9 51 11 69 2 18 6 36 9
42 8 12 36 207 35 241 -1 31 -2 26 -25 -77 -9 -46 -21 -83 -26 -83 -4 0 -8 5
-8 10 0 7 -6 7 -20 0 -16 -8 -20 -8 -20 4 0 10 -6 13 -15 10 -25 -10 -17 -30
21 -50 33 -18 35 -22 29 -54 -10 -56 -53 -199 -70 -232 -8 -17 -15 -35 -15
-39 0 -4 -13 -27 -29 -51 -27 -39 -54 -73 -174 -212 -23 -27 -48 -57 -55 -67
-7 -11 -17 -19 -22 -19 -9 0 -35 79 -28 85 2 1 29 17 61 35 31 17 57 34 57 37
0 3 -19 3 -42 1 l-43 -3 -13 80 c-17 106 -11 160 32 283 34 99 131 287 186
364 15 20 33 51 40 69 12 28 11 33 -3 44 -16 11 -16 13 1 29 10 9 24 16 30 16
7 0 12 4 12 9 0 5 18 27 40 50 35 36 40 46 39 85 -3 54 4 65 36 58 14 -2 36 3
51 12 21 14 24 22 19 47 -7 30 3 37 23 17 9 -9 19 4 42 56 17 37 33 80 37 97
6 33 34 39 67 14 30 -23 53 -19 25 4 l-23 18 22 14 c12 8 22 17 22 21 0 15
-24 8 -47 -14 -21 -19 -23 -20 -23 -4 0 15 -3 16 -15 6 -24 -20 -19 23 10 80
14 27 25 57 25 67 0 10 14 41 30 68 17 29 30 65 30 85 0 43 25 183 34 199 4 6
3 18 -2 27 -7 12 -16 -2 -40 -62 -17 -44 -33 -99 -36 -123 -4 -24 -13 -53 -21
-64 -8 -12 -15 -33 -15 -47 0 -14 -10 -41 -22 -60 -12 -19 -29 -62 -39 -95
-16 -54 -18 -57 -18 -24 -1 19 3 39 7 45 5 5 5 25 1 44 -3 19 -7 27 -8 18 0
-10 -10 -34 -20 -55 -11 -21 -22 -69 -26 -108 -6 -64 -12 -78 -70 -165 -34
-52 -71 -117 -81 -145 -9 -27 -25 -59 -35 -70 -24 -28 -96 -143 -115 -185 -44
-97 -62 -125 -120 -184 -36 -36 -56 -74 -43 -78 16 -5 3 -43 -27 -75 -14 -15
-22 -33 -19 -43 3 -8 -4 -33 -15 -55 -13 -25 -16 -41 -10 -45 7 -5 7 -16 -1
-36 -7 -16 -13 -47 -14 -69 -1 -22 -8 -69 -15 -105 -12 -66 -8 -150 12 -229 9
-34 8 -45 -3 -51 -18 -12 -39 7 -39 35 0 12 -9 34 -20 48 -23 29 -25 66 -6
122 8 22 17 55 21 72 5 28 4 32 -10 27 -20 -8 -41 -49 -50 -96 -4 -20 -13 -39
-21 -42 -10 -4 -14 -24 -15 -63 -1 -32 -4 -69 -8 -83 -7 -25 -7 -24 -20 10 -7
19 -14 53 -17 75 -2 22 -4 47 -5 55 -3 34 12 95 26 103 8 4 15 12 15 18 0 5
15 42 34 82 19 40 37 92 41 117 7 44 6 44 -10 22 -43 -58 -105 -214 -121 -302
-16 -85 -16 -96 -1 -150 13 -45 15 -70 7 -109 -9 -50 -11 -65 -30 -272 -11
-114 -24 -175 -47 -214 -12 -21 -18 -21 -241 -16 -35 0 -71 -5 -82 -12 -17
-10 -22 -9 -30 2 -4 8 -19 16 -32 18 -41 6 -278 4 -288 -2 -6 -4 -17 -1 -25 5
-12 10 -18 10 -29 1 -10 -8 -63 -11 -170 -10 l-155 2 -31 -32 c-36 -35 -43
-37 -60 -17 -9 12 -17 12 -35 4 -17 -7 -28 -8 -37 -1 -7 6 -34 14 -60 17 -34
5 -49 12 -53 27 -4 10 -10 17 -14 15 -4 -3 -12 4 -18 14 -10 15 -9 17 8 13 16
-4 19 0 19 25 0 17 -4 34 -10 37 -5 3 -10 -1 -10 -9 0 -20 -20 -31 -30 -16 -5
8 -18 3 -44 -20 -54 -48 -46 -12 9 43 25 24 48 57 51 72 3 16 14 48 24 71 11
24 20 47 20 51 0 5 5 14 12 21 12 12 41 95 59 172 6 25 12 89 13 143 2 56 8
103 15 110 8 8 11 6 12 -8 0 -19 0 -19 8 0 14 34 20 95 10 95 -5 0 -9 -7 -9
-15 0 -8 -4 -15 -10 -15 -5 0 -10 11 -10 25 0 35 -24 32 -51 -6 -12 -17 -37
-38 -56 -45 -18 -8 -38 -25 -43 -38 -5 -13 -14 -27 -19 -31 -18 -10 -12 -83 9
-125 19 -38 19 -41 4 -65 -9 -14 -22 -24 -28 -22 -19 6 -35 69 -35 139 l-1 68
-25 -12 c-41 -19 -43 2 -3 35 26 22 42 47 53 82 19 63 19 81 2 67 -20 -17 -61
8 -65 40 -3 22 -9 27 -48 33 -25 3 -48 4 -51 2 -2 -3 3 -17 12 -31 22 -33 12
-66 -20 -66 -17 0 -41 20 -81 64 -48 54 -65 66 -99 71 -37 6 -427 80 -467 89
-13 3 -32 -18 -68 -74 -52 -81 -69 -101 -71 -78 -4 52 5 109 22 141 21 41 17
66 -7 46 -12 -9 -14 -6 -14 20 0 18 -8 46 -17 64 -27 51 -23 175 9 262 16 43
30 113 38 183 l12 113 44 45 c25 24 49 42 55 39 5 -4 9 1 9 9 0 22 43 84 63
89 9 3 17 15 17 26 0 13 9 25 23 30 12 5 42 29 67 54 67 66 72 74 60 96 -5 11
-10 30 -10 43 0 18 6 24 26 26 27 2 54 23 54 42 0 6 5 8 10 5 6 -3 10 4 10 16
0 12 11 70 24 128 14 58 32 145 40 193 19 104 42 158 68 158 10 0 18 -6 18
-12 0 -7 7 -3 15 9 30 43 40 19 42 -99 2 -121 20 -275 33 -283 16 -10 20 13 9
45 -8 23 -9 78 -1 202 9 151 13 173 34 204 13 18 29 36 37 39 20 8 48 -21 67
-70 l16 -43 45 13 c24 7 59 25 77 38 33 26 34 28 120 276 17 52 37 96 44 99 8
2 7 -9 -3 -39 -8 -23 -14 -44 -12 -46 2 -2 16 15 31 37 22 34 30 39 51 34 15
-4 25 -2 25 5 0 6 -6 11 -14 11 -8 0 -18 5 -22 12 -5 8 2 9 23 5 34 -7 183 17
214 34 11 6 23 8 26 5 6 -6 -42 -65 -68 -84 -11 -7 -19 -19 -19 -26 0 -7 -16
-28 -35 -47 -19 -19 -35 -42 -35 -51 0 -10 -9 -22 -20 -28 -12 -6 -20 -21 -20
-35 0 -31 16 -33 26 -2 4 12 10 24 13 27 4 3 23 27 42 54 37 54 105 121 123
121 5 0 23 19 38 42 16 23 51 61 78 86 43 39 48 47 35 57 -12 10 -19 10 -33
-2 -33 -29 -130 -77 -206 -103 -61 -21 -86 -25 -119 -19 -27 5 -35 9 -22 12
11 2 34 10 50 17 17 7 61 25 98 40 43 18 89 47 124 79 67 61 55 73 -19 18 -62
-45 -228 -131 -228 -118 0 2 18 34 40 72 22 37 38 70 35 72 -9 9 -74 -40 -99
-76 -30 -44 -32 -52 -11 -52 28 0 15 -15 -22 -27 -21 -6 -39 -10 -42 -8 -2 2
7 20 19 40 12 20 20 39 16 42 -5 5 -54 -92 -70 -140 -5 -15 -14 -18 -48 -15
l-42 3 -43 -70 c-41 -68 -82 -195 -83 -257 0 -15 -5 -30 -11 -34 -15 -9 -4
102 18 196 8 36 16 94 17 130 7 191 194 423 392 485 31 10 74 29 93 43 l36 24
-66 -7 c-71 -7 -85 0 -74 35 8 26 115 59 216 67 l77 6 -18 31 c-10 17 -21 42
-25 56 -4 14 -14 33 -22 42 -9 10 -13 24 -9 33 3 9 2 13 -4 10 -6 -3 -13 2
-16 12 -3 10 -12 30 -20 45 -8 14 -14 32 -14 40 0 7 -25 44 -56 81 -34 43 -53
75 -50 84 4 11 2 13 -9 9 -8 -3 -15 0 -15 6 0 6 -15 29 -33 52 -19 23 -39 51
-46 64 -6 12 -15 21 -19 21 -4 -1 -41 -5 -82 -10z m2201 -589 c5 0 9 -7 9 -15
0 -9 -6 -12 -15 -9 -9 4 -15 17 -14 33 1 17 3 20 6 9 2 -10 9 -18 14 -18z m-1
-61 c0 -36 -23 -101 -37 -106 -22 -8 -26 3 -15 39 6 18 13 45 16 61 7 32 36
37 36 6z m-149 -1716 c-8 -15 -10 -15 -11 -2 0 17 10 32 18 25 2 -3 -1 -13 -7
-23z m3180 -441 c-9 -16 -3 -21 46 -36 31 -10 106 -43 167 -74 85 -43 127 -72
178 -122 39 -39 69 -78 74 -96 7 -32 70 -104 91 -104 17 0 53 -65 137 -247 89
-194 105 -241 117 -346 19 -174 24 -187 65 -187 39 0 51 -34 58 -165 7 -132
-5 -230 -32 -273 -9 -15 -57 -76 -106 -134 -86 -103 -89 -106 -117 -96 -29 10
-40 40 -19 53 6 3 10 16 10 27 0 12 7 29 16 39 20 22 89 277 98 362 6 51 4 67
-7 74 -8 4 -22 33 -33 63 -15 45 -18 88 -18 232 -1 157 -3 178 -17 178 -11 0
-20 15 -29 48 -43 166 -79 226 -233 387 -107 111 -124 133 -116 151 12 33 -23
62 -54 45 -19 -10 -31 -9 -71 8 -26 12 -52 21 -58 21 -6 0 -34 11 -62 25 -127
62 -332 90 -470 64 -42 -7 -61 -7 -71 1 -10 9 -36 2 -110 -29 -53 -22 -102
-38 -110 -34 -17 6 -85 -32 -143 -80 -142 -119 -320 -400 -327 -514 -1 -27
-11 -75 -21 -108 -14 -46 -18 -94 -18 -207 0 -158 7 -185 42 -160 63 46 187
61 236 29 46 -30 66 -75 66 -146 0 -117 -45 -235 -115 -301 -14 -13 -25 -33
-25 -46 0 -25 -26 -52 -32 -33 -7 21 -108 -62 -108 -87 0 -17 -9 -25 -34 -34
-19 -6 -37 -16 -39 -23 -5 -17 -102 49 -166 113 -28 28 -63 75 -78 103 -14 29
-32 56 -39 62 -20 15 -54 122 -54 171 0 54 30 150 65 210 36 61 76 79 138 60
l44 -13 0 119 c0 65 -4 121 -9 124 -4 3 -8 16 -8 29 0 39 212 462 269 536 72
94 188 201 267 245 78 44 215 87 248 78 13 -3 60 3 107 12 57 12 133 18 236
18 115 1 153 4 153 14 0 6 7 12 15 12 12 0 13 -4 6 -18z m264 -44 c50 -41 135
-127 135 -138 0 -12 -165 128 -174 148 -8 19 8 14 39 -10z m-1045 -18 c-8 -5
-19 -10 -25 -10 -5 0 -3 5 5 10 8 5 20 10 25 10 6 0 3 -5 -5 -10z m-785 -108
c-14 -13 -207 -83 -212 -78 -7 6 70 45 132 67 54 19 95 25 80 11z m231 -107
c-18 -73 -36 -92 -55 -57 -7 14 -4 26 15 50 30 38 49 42 40 7z m84 15 c0 -5
-4 -10 -10 -10 -5 0 -10 5 -10 10 0 6 5 10 10 10 6 0 10 -4 10 -10z m1889 -54
c-7 -8 -15 -5 -25 8 -11 16 -11 22 -1 28 17 11 41 -22 26 -36z m162 -142 c5
-15 8 -29 5 -31 -2 -2 -8 10 -14 26 -13 38 -5 41 9 5z m249 -144 c0 -5 -2 -10
-4 -10 -3 0 -8 5 -11 10 -3 6 -1 10 4 10 6 0 11 -4 11 -10z m-85 -30 c3 -5 1
-10 -4 -10 -6 0 -11 5 -11 10 0 6 2 10 4 10 3 0 8 -4 11 -10z m-4378 -72 c-37
-69 -81 -131 -85 -120 -2 6 17 38 42 72 25 34 46 68 46 76 0 8 5 14 10 14 6 0
0 -19 -13 -42z m4403 32 c0 -5 13 -22 30 -36 46 -42 61 -94 58 -204 l-3 -95
-27 56 c-15 30 -36 98 -47 150 -11 51 -23 104 -27 117 -4 13 -2 22 5 22 6 0
11 -4 11 -10z m-1969 -52 c-16 -35 -19 -37 -14 -13 7 36 23 69 30 62 2 -3 -5
-25 -16 -49z m-1071 -122 c-35 -61 -45 -72 -29 -29 17 45 53 105 57 95 2 -6
-11 -35 -28 -66z m2274 -97 c3 -17 6 -39 6 -48 -1 -25 -29 30 -30 57 0 33 17
27 24 -9z m110 -84 c-7 -48 -26 -59 -44 -26 -15 28 -12 67 5 81 8 7 15 22 16
34 0 17 3 15 15 -11 9 -21 12 -48 8 -78z m-800 24 c11 -27 11 -38 -2 -72 -15
-38 -108 -148 -99 -117 24 85 73 220 79 220 5 0 15 -14 22 -31z m684 -19 c24
-30 41 -138 42 -252 0 -47 -1 -48 -30 -48 -16 0 -50 7 -76 16 -25 8 -48 13
-51 10 -9 -8 58 -34 106 -42 23 -4 44 -10 47 -15 5 -8 -10 -111 -22 -151 -4
-15 -18 -18 -77 -18 -40 0 -90 -5 -112 -10 -45 -10 -53 -7 -35 15 11 14 8 22
-25 55 l-38 39 19 36 c13 24 26 35 41 35 23 0 32 23 13 35 -16 10 -13 17 48
111 31 50 70 118 86 152 16 34 32 62 35 61 3 0 16 -13 29 -29z m100 -89 c11
-6 13 -33 10 -109 -3 -89 -10 -124 -22 -111 -6 6 -12 229 -6 229 3 0 11 -4 18
-9z m730 -133 c-5 -24 -12 -46 -16 -50 -8 -8 -4 110 5 132 11 30 21 -39 11
-82z m-598 -30 c0 -5 -7 -8 -15 -8 -8 0 -15 4 -15 9 0 5 -2 24 -6 42 l-5 34
20 -35 c11 -19 20 -38 21 -42z m-68 -71 c-9 -18 -21 9 -15 33 l7 25 6 -25 c4
-14 5 -29 2 -33z m122 -49 c12 -28 12 -37 -1 -61 -8 -16 -12 -35 -9 -42 2 -7
-1 -29 -8 -49 l-13 -37 -11 70 c-17 98 -16 121 5 121 13 0 14 3 5 12 -7 7 -12
23 -12 37 l0 25 15 -21 c9 -13 22 -37 29 -55z m-197 5 c-3 -10 -5 -4 -5 12 0
17 2 24 5 18 2 -7 2 -21 0 -30z m83 8 c5 -11 10 -54 10 -96 0 -66 -2 -76 -16
-71 -9 3 -27 9 -40 12 -26 7 -29 17 -14 60 5 16 14 48 20 72 12 46 24 53 40
23z m-2547 -59 c-9 -37 -23 -24 -23 20 0 40 1 41 14 22 8 -12 12 -31 9 -42z
m3235 -110 l-3 -37 -11 35 c-7 24 -7 49 0 80 l11 45 3 -43 c2 -23 2 -59 0 -80z
m-3251 31 c-3 -10 -5 -4 -5 12 0 17 2 24 5 18 2 -7 2 -21 0 -30z m3241 -103
l0 -25 -8 25 c-4 14 -8 34 -8 45 l-1 20 9 -20 c5 -11 8 -31 8 -45z m-9545 10
c74 -35 126 -46 272 -55 144 -8 189 -13 255 -24 136 -23 192 -30 290 -36 111
-6 162 -15 167 -31 9 -26 -39 -72 -118 -114 -218 -114 -292 -140 -399 -140
-76 1 -164 20 -211 46 -116 65 -277 201 -319 269 -20 33 -28 83 -17 103 11 16
9 16 80 -18z m9097 -1 c0 -11 -4 -17 -10 -14 -5 3 -10 15 -10 26 0 11 5 17 10
14 6 -3 10 -15 10 -26z m-144 -205 c-13 -34 -26 -10 -25 49 l1 62 15 -48 c8
-27 12 -55 9 -63z m-1456 1 c0 -14 -4 -25 -10 -25 -5 0 -10 11 -10 25 0 14 5
25 10 25 6 0 10 -11 10 -25z m1524 -180 c4 -14 3 -37 -1 -52 l-7 -28 -7 25
c-10 36 -10 80 0 80 5 0 12 -11 15 -25z m-2006 -84 c-3 -11 -9 -6 -22 17 -10
19 -14 41 -11 50 6 14 10 10 22 -17 8 -18 12 -41 11 -50z m618 -86 c8 -8 21
-12 29 -9 8 4 20 -7 31 -28 9 -18 30 -50 47 -71 16 -21 27 -40 25 -43 -9 -8
-123 72 -141 99 -16 25 -23 67 -11 67 3 0 12 -7 20 -15z m-706 -85 c25 -58 39
-80 54 -82 39 -6 96 -192 96 -318 0 -65 -1 -65 -19 -41 -45 58 -122 224 -146
311 -21 80 -34 210 -21 210 2 0 18 -36 36 -80z m900 -15 c0 -20 -14 -19 -32 3
-32 37 -32 44 1 28 17 -9 31 -23 31 -31z m1690 41 c0 -3 -4 -8 -10 -11 -5 -3
-10 -1 -10 4 0 6 5 11 10 11 6 0 10 -2 10 -4z m-530 -81 c-13 -35 -51 -80 -97
-117 -55 -43 -61 -33 -9 13 25 23 60 64 78 90 34 53 45 58 28 14z m-2141 -203
c13 -35 20 -66 17 -69 -7 -7 -41 72 -51 117 -11 52 8 25 34 -48z m2706 -115
c-7 -69 -22 -117 -37 -117 -6 0 -8 10 -5 23 3 12 8 40 12 62 3 22 8 55 11 73
9 59 25 23 19 -41z m-370 -24 c-17 -120 -68 -273 -91 -273 -28 0 -24 28 15
107 22 44 48 110 57 147 9 36 18 66 21 66 2 0 1 -21 -2 -47z m-579 -34 l-14
-34 -1 36 c-1 39 7 55 21 41 5 -5 3 -24 -6 -43z m-1997 -1 c-1 -37 -2 -39 -9
-18 -12 36 -12 60 0 60 6 0 10 -19 9 -42z m681 -255 c0 -16 -5 -35 -10 -43 -7
-11 -10 -4 -10 28 0 23 5 42 10 42 6 0 10 -12 10 -27z m-24 -218 l-14 -80 4
75 c3 41 8 95 12 120 l7 45 2 -40 c2 -22 -3 -76 -11 -120z m2020 30 c-22 -68
-33 -76 -42 -30 -5 31 -2 41 22 66 15 16 30 27 32 24 3 -2 -3 -29 -12 -60z
m-2842 -13 c35 -68 49 -78 74 -52 l20 22 63 -94 c34 -51 75 -104 91 -118 26
-22 28 -28 19 -52 -6 -16 -15 -28 -21 -28 -5 0 -10 -7 -10 -16 0 -22 -49 14
-127 94 -71 72 -143 203 -143 258 0 19 2 34 5 34 2 0 16 -22 29 -48z m2775
-132 c0 -19 -4 -42 -9 -50 -7 -10 -9 8 -9 60 1 53 3 68 9 50 4 -14 8 -41 9
-60z m-72 13 c-3 -10 -5 -2 -5 17 0 19 2 27 5 18 2 -10 2 -26 0 -35z m-5680
-85 c-3 -8 -6 -5 -6 6 -1 11 2 17 5 13 3 -3 4 -12 1 -19z m3 -48 c14 -26 8
-35 -30 -48 -35 -13 -35 -13 -13 33 19 40 28 43 43 15z m5680 -23 c0 -48 -7
-62 -24 -48 -12 10 -24 6 -174 -54 -51 -20 -96 -34 -100 -30 -4 3 3 23 14 43
17 29 36 42 98 68 42 18 76 30 76 27 0 -3 7 0 15 7 13 10 55 25 88 29 4 1 7
-18 7 -42z m-5660 -73 c0 -19 6 -49 13 -67 8 -18 12 -37 10 -44 -2 -6 3 -23
12 -37 l17 -26 -75 6 c-71 6 -118 -2 -234 -43 -10 -3 6 19 35 48 28 30 52 60
52 66 0 6 7 14 16 17 8 3 13 10 10 15 -15 23 111 118 137 104 4 -2 7 -20 7
-39z m5505 -244 c-3 -5 -15 -10 -26 -10 -11 0 -17 5 -14 10 3 6 15 10 26 10
11 0 17 -4 14 -10z m157 -52 c-9 -9 -12 -7 -12 12 0 19 3 21 12 12 9 -9 9 -15
0 -24z m-6145 -280 c-2 -46 -11 -123 -19 -173 -9 -49 -19 -116 -23 -147 -3
-32 -10 -58 -15 -58 -4 0 -18 33 -30 73 -23 72 -23 72 -5 182 19 120 36 173
62 193 30 22 35 13 30 -70z m-42 -440 c6 -35 14 -71 40 -179 24 -102 17 -124
-28 -94 -24 15 -34 44 -66 187 -16 70 -14 92 12 104 33 17 35 17 42 -18z
m2372 -600 c-3 -8 -6 -5 -6 6 -1 11 2 17 5 13 3 -3 4 -12 1 -19z"/>
<path d="M10795 7595 c17 -8 37 -14 45 -14 8 0 2 7 -15 14 -16 8 -37 14 -45
14 -8 0 -1 -7 15 -14z"/>
<path d="M11740 6966 c0 -8 5 -18 10 -21 6 -3 10 1 10 9 0 8 -4 18 -10 21 -5
3 -10 -1 -10 -9z"/>
<path d="M11772 6840 c0 -14 2 -19 5 -12 2 6 2 18 0 25 -3 6 -5 1 -5 -13z"/>
<path d="M6446 10018 c-22 -12 9 -72 33 -63 51 20 140 36 175 32 34 -4 37 -3
19 6 -13 5 -23 15 -23 21 0 6 -4 5 -9 -3 -6 -9 -15 -11 -27 -6 -11 5 -23 7
-28 6 -5 -1 -16 1 -25 4 -24 10 -99 12 -115 3z"/>
<path d="M6160 9905 c-8 -9 -8 -15 -2 -15 12 0 26 19 19 26 -2 2 -10 -2 -17
-11z"/>
<path d="M6805 9895 c-5 -2 -48 -15 -95 -30 -47 -14 -92 -31 -100 -36 -12 -9
-11 -10 5 -4 51 17 242 55 277 55 21 0 38 5 38 10 0 9 -101 13 -125 5z"/>
<path d="M6098 9835 c-24 -16 -46 -24 -60 -20 -19 4 -26 -1 -39 -30 -13 -28
-14 -35 -3 -35 15 0 44 -50 44 -76 0 -10 -10 -28 -22 -41 -19 -21 -20 -25 -7
-49 21 -41 36 -40 84 5 49 46 57 49 53 24 -2 -13 4 -18 26 -18 22 -1 33 6 45
26 9 16 26 33 38 38 20 9 42 55 31 66 -2 3 -21 0 -42 -6 -28 -8 -46 -7 -68 2
-20 8 -32 9 -36 2 -4 -6 -18 -14 -31 -18 -21 -6 -23 -5 -16 11 18 46 18 55 -4
61 -11 3 -21 9 -21 13 0 11 32 23 53 21 12 -2 17 5 17 23 0 14 -1 26 -3 26 -1
0 -19 -11 -39 -25z"/>
<path d="M6280 9840 l-35 -19 53 -1 c46 0 53 3 50 17 -5 25 -27 26 -68 3z"/>
<path d="M6708 9783 c7 -3 16 -2 19 1 4 3 -2 6 -13 5 -11 0 -14 -3 -6 -6z"/>
<path d="M6645 9770 c-3 -5 3 -10 14 -10 11 0 23 5 26 10 3 6 -3 10 -14 10
-11 0 -23 -4 -26 -10z"/>
<path d="M5913 9743 c9 -2 23 -2 30 0 6 3 -1 5 -18 5 -16 0 -22 -2 -12 -5z"/>
<path d="M6795 9739 c-12 -19 5 -23 22 -6 16 16 16 17 1 17 -9 0 -20 -5 -23
-11z"/>
<path d="M6465 9694 c-27 -13 -59 -37 -69 -51 -19 -26 -19 -26 40 7 114 65
121 70 99 70 -11 0 -42 -12 -70 -26z"/>
<path d="M5572 9649 c-58 -33 -136 -109 -166 -161 -15 -25 -3 -18 50 34 38 37
96 87 128 112 69 53 64 59 -12 15z"/>
<path d="M6817 9634 c-20 -13 -37 -29 -37 -35 0 -6 -3 -8 -8 -5 -4 2 -26 -9
-50 -25 -23 -16 -46 -29 -51 -29 -4 0 -18 -11 -31 -25 -13 -14 -21 -25 -17
-25 15 0 159 93 208 134 42 35 33 42 -14 10z"/>
<path d="M7231 9638 c6 -13 26 -33 44 -45 29 -18 34 -19 40 -6 3 9 4 17 3 18
-27 20 -84 55 -90 55 -4 0 -3 -10 3 -22z"/>
<path d="M7330 9594 c0 -8 5 -12 10 -9 6 3 10 10 10 16 0 5 -4 9 -10 9 -5 0
-10 -7 -10 -16z"/>
<path d="M7220 9575 c-8 -10 -4 -18 16 -34 15 -12 21 -21 15 -21 -7 0 -17 -13
-22 -29 -7 -21 -39 -48 -112 -97 -56 -37 -104 -69 -106 -71 -2 -1 2 -9 9 -18
10 -12 8 -16 -16 -25 -41 -16 -116 -61 -111 -67 8 -7 97 26 129 48 15 11 25
25 22 31 -4 7 -2 8 5 4 14 -9 43 12 36 25 -3 4 11 17 32 28 21 11 60 35 88 55
48 35 82 49 57 24 -7 -7 -12 -16 -12 -20 0 -16 25 -7 52 18 25 25 29 26 50 12
17 -11 27 -32 36 -77 7 -33 17 -61 22 -61 6 0 10 3 11 8 6 98 13 119 33 103
10 -8 13 -3 13 19 0 17 6 41 13 55 7 14 10 28 6 32 -12 12 -40 -11 -57 -47
l-16 -33 -17 24 c-9 13 -22 24 -29 24 -6 0 -14 13 -17 30 -5 30 -29 48 -90 65
-20 6 -32 4 -40 -5z"/>
<path d="M6081 9545 c-32 -37 -40 -65 -18 -65 10 0 49 55 65 93 9 20 -20 3
-47 -28z"/>
<path d="M7437 9574 c-14 -15 -6 -23 31 -35 51 -15 86 -9 90 16 2 18 -4 20
-56 23 -32 1 -61 -1 -65 -4z"/>
<path d="M6320 9510 c13 -24 35 -27 26 -4 -3 9 -6 18 -6 20 0 2 -7 4 -15 4
-13 0 -14 -4 -5 -20z"/>
<path d="M5981 9504 c0 -11 3 -14 6 -6 3 7 2 16 -1 19 -3 4 -6 -2 -5 -13z"/>
<path d="M6584 9284 c-18 -14 -18 -15 4 -4 12 6 22 13 22 15 0 8 -5 6 -26 -11z"/>
<path d="M6510 9255 c-14 -8 -42 -19 -62 -25 -23 -6 -38 -17 -38 -26 0 -8 3
-14 8 -12 23 11 61 27 89 38 37 14 65 40 42 40 -8 -1 -25 -7 -39 -15z"/>
<path d="M7445 9240 c-6 -10 6 -82 36 -215 24 -108 32 -175 21 -175 -14 0 -56
-92 -67 -148 -7 -39 -28 -108 -41 -139 -8 -17 -18 -53 -23 -78 -5 -25 -16 -51
-24 -58 -8 -7 -24 -27 -35 -46 l-20 -33 -17 31 c-14 28 -15 45 -5 132 13 116
16 271 6 288 -12 19 -26 2 -26 -30 0 -38 -24 -34 -28 4 -3 22 -8 27 -32 27
-31 0 -37 10 -42 75 -2 34 11 105 23 120 15 20 16 195 0 195 -10 0 -24 -50
-46 -165 -16 -80 -13 -181 6 -233 8 -22 7 -23 -18 -18 -54 11 -206 25 -215 20
-20 -12 6 -21 80 -28 77 -6 189 -33 179 -42 -2 -3 0 -22 5 -42 10 -40 26 -152
22 -152 -2 0 -25 24 -53 53 -45 47 -80 66 -151 81 -3 1 -10 5 -17 9 -6 4 -39
8 -73 9 -51 1 -64 -2 -83 -21 -19 -18 -20 -23 -7 -31 17 -11 46 -14 104 -11
123 5 246 -101 246 -212 0 -26 6 -39 20 -47 14 -7 20 -7 20 0 0 5 5 10 10 10
15 0 0 -53 -18 -66 -9 -7 -12 -16 -7 -24 5 -8 4 -11 -2 -7 -10 6 -31 -16 -98
-106 -32 -42 -38 -67 -16 -67 4 0 23 23 42 50 22 33 53 62 87 81 28 17 59 37
67 46 23 22 38 11 42 -32 2 -22 6 -47 9 -55 4 -13 6 -13 14 0 14 22 12 67 -5
99 -13 26 -13 31 4 52 29 39 72 131 69 149 -2 10 4 26 13 36 8 11 35 78 58
149 24 72 47 140 53 151 7 15 7 47 -2 105 -7 46 -16 125 -20 174 -7 82 -22
145 -34 145 -3 0 -8 -4 -11 -10z m-195 -572 c0 -24 3 -54 6 -68 5 -22 3 -21
-15 8 -25 39 -29 102 -6 102 11 0 15 -11 15 -42z m3 -135 c-7 -3 -13 -12 -14
-21 0 -12 -2 -13 -6 -3 -5 11 -7 11 -15 0 -5 -9 -6 -3 -2 16 10 44 15 49 33
30 12 -13 13 -19 4 -22z m2 -215 c-6 -16 -45 -42 -45 -30 0 5 7 24 16 42 14
26 18 30 25 17 5 -8 7 -21 4 -29z"/>
<path d="M7165 9210 c3 -5 8 -10 11 -10 2 0 4 5 4 10 0 6 -5 10 -11 10 -5 0
-7 -4 -4 -10z"/>
<path d="M6130 9180 c0 -5 30 -26 68 -46 91 -51 225 -138 241 -158 17 -20 31
-21 31 -2 0 8 -33 38 -72 68 -155 113 -268 172 -268 138z"/>
<path d="M6318 9173 c6 -2 18 -2 25 0 6 3 1 5 -13 5 -14 0 -19 -2 -12 -5z"/>
<path d="M6270 9160 c-8 -5 -10 -10 -5 -10 6 0 17 5 25 10 8 5 11 10 5 10 -5
0 -17 -5 -25 -10z"/>
<path d="M5460 9130 c-6 -11 -8 -20 -6 -20 3 0 10 9 16 20 6 11 8 20 6 20 -3
0 -10 -9 -16 -20z"/>
<path d="M6818 9134 c-3 -3 -25 -7 -49 -9 -24 -3 -66 -13 -93 -22 -46 -17 -50
-17 -59 -1 -10 15 -14 15 -48 -2 -20 -11 -39 -17 -41 -14 -3 2 -11 -3 -19 -12
-12 -15 -11 -16 16 -11 17 3 63 9 103 12 62 6 72 5 72 -9 0 -9 2 -16 5 -16 4
0 136 78 144 86 2 2 -2 4 -11 4 -8 0 -17 -3 -20 -6z"/>
<path d="M5496 9050 c-18 -25 -36 -51 -40 -58 -16 -27 28 5 78 56 47 48 47 50
21 49 -19 -2 -35 -14 -59 -47z"/>
<path d="M5700 9060 c-19 -11 -50 -37 -68 -57 -18 -21 -30 -30 -26 -20 3 9 1
17 -5 17 -6 0 -18 -26 -28 -57 -15 -50 -18 -54 -21 -30 -2 16 6 54 19 84 14
34 18 58 12 64 -10 10 -13 5 -51 -81 -13 -29 -39 -60 -71 -85 -28 -22 -51 -45
-51 -51 0 -18 40 -64 55 -64 24 0 26 -18 10 -72 -23 -78 -16 -186 13 -196 8
-2 10 17 5 76 l-6 80 45 -5 44 -5 44 118 c45 126 86 219 105 244 14 18 26 60
17 59 -4 0 -23 -9 -42 -19z m-73 -147 c-7 -16 -27 -67 -43 -115 -16 -49 -32
-88 -35 -88 -4 0 -9 16 -12 36 -6 37 6 74 23 74 6 0 10 5 10 12 0 12 59 108
66 108 3 0 -2 -12 -9 -27z"/>
<path d="M5900 9069 c0 -5 5 -7 10 -4 6 3 10 8 10 11 0 2 -4 4 -10 4 -5 0 -10
-5 -10 -11z"/>
<path d="M5616 9045 c-9 -26 -7 -32 5 -12 6 10 9 21 6 23 -2 3 -7 -2 -11 -11z"/>
<path d="M7732 9020 c0 -14 2 -19 5 -12 2 6 2 18 0 25 -3 6 -5 1 -5 -13z"/>
<path d="M6206 9005 c-4 -11 -20 -15 -58 -15 -85 0 -188 -66 -188 -121 0 -25
7 -24 75 12 103 55 128 60 182 42 56 -19 83 -35 137 -80 79 -66 106 -24 34 49
-24 24 -59 51 -78 62 l-35 19 30 10 c16 6 36 16 43 24 11 11 1 13 -61 13 -57
0 -76 -4 -81 -15z"/>
<path d="M7742 8960 c0 -19 2 -27 5 -17 2 9 2 25 0 35 -3 9 -5 1 -5 -18z"/>
<path d="M6139 8885 c-56 -18 -99 -63 -125 -130 -15 -41 -16 -53 -5 -94 15
-58 24 -67 91 -91 66 -24 132 -26 168 -4 43 25 102 113 102 150 0 18 3 39 6
47 3 9 -15 36 -48 71 -46 48 -59 56 -98 60 -25 3 -66 -1 -91 -9z m-42 -173
c-10 -10 -17 -23 -17 -29 0 -16 43 -51 71 -58 30 -7 109 29 109 50 0 19 13 25
38 18 30 -7 29 -32 0 -26 -18 3 -27 -4 -43 -33 -37 -70 -64 -79 -136 -47 -56
24 -80 100 -41 129 25 20 38 17 19 -4z"/>
<path d="M5248 8826 c-20 -6 -40 -14 -43 -18 -4 -4 -4 -33 0 -64 4 -31 10 -52
14 -48 17 20 81 144 74 143 -4 -1 -25 -6 -45 -13z"/>
<path d="M5061 8745 c-1 -85 14 -146 34 -139 10 4 11 12 4 33 -5 15 -16 61
-23 102 l-14 74 -1 -70z"/>
<path d="M5358 8783 c-3 -10 -6 -90 -7 -178 -1 -88 -7 -161 -12 -163 -15 -6
-10 -52 6 -52 18 0 30 23 39 74 4 21 14 48 21 60 7 12 15 53 16 91 3 58 -1 80
-23 128 -15 31 -29 57 -31 57 -3 0 -7 -8 -9 -17z"/>
<path d="M5781 8729 c-13 -37 -15 -179 -3 -179 5 0 15 11 22 25 10 20 11 32 0
70 -7 25 -10 61 -7 80 7 43 2 45 -12 4z"/>
<path d="M5664 8665 c-10 -25 -13 -51 -8 -85 10 -77 -32 -108 -74 -55 -27 34
-32 32 -32 -12 0 -21 -9 -58 -20 -82 -11 -24 -20 -50 -20 -57 0 -8 -11 -37
-25 -64 -14 -27 -25 -57 -25 -66 0 -9 -9 -31 -20 -50 -13 -20 -17 -35 -10 -39
5 -3 10 -1 10 4 0 23 40 51 64 45 21 -5 26 -1 36 31 14 42 95 193 115 214 12
12 15 11 20 -10 3 -13 7 -37 9 -54 2 -16 7 -52 11 -80 6 -42 2 -62 -23 -125
-32 -81 -46 -150 -31 -150 5 0 25 25 45 56 33 51 36 61 30 105 -6 40 -4 49 9
49 20 0 19 23 -5 150 -12 58 -22 151 -22 208 -1 56 -6 102 -11 102 -4 0 -15
-16 -23 -35z"/>
<path d="M5216 8645 c-3 -9 -6 -32 -6 -51 0 -20 -5 -44 -11 -56 -7 -13 -8 -28
-1 -46 6 -15 13 -36 17 -47 6 -18 8 -17 20 10 10 22 14 25 14 11 1 -11 4 -16
8 -12 9 9 10 196 1 196 -3 0 -13 3 -21 6 -8 3 -17 -2 -21 -11z"/>
<path d="M6870 8584 c-100 -27 -159 -117 -137 -209 14 -58 40 -90 93 -114 60
-29 151 -21 195 16 34 29 36 39 8 48 -14 5 -25 1 -34 -13 -8 -10 -34 -25 -59
-32 -80 -22 -142 17 -152 98 -4 30 -3 34 6 19 22 -34 57 -66 83 -76 37 -14 85
4 93 35 3 13 7 24 8 24 1 0 19 -9 41 -20 50 -26 65 -14 65 52 0 78 -48 153
-113 177 -34 13 -28 13 -97 -5z"/>
<path d="M11590 8576 c0 -13 110 -127 131 -134 5 -2 9 -16 9 -31 0 -26 16 -51
32 -51 10 0 10 51 0 66 -4 6 -18 17 -31 23 -20 11 -22 18 -17 55 9 55 -6 72
-71 80 -43 5 -53 4 -53 -8z"/>
<path d="M8956 8525 c4 -8 8 -15 10 -15 2 0 4 7 4 15 0 8 -4 15 -10 15 -5 0
-7 -7 -4 -15z"/>
<path d="M7791 8338 c-14 -23 -14 -23 8 -4 22 20 25 26 13 26 -4 0 -13 -10
-21 -22z"/>
<path d="M5861 8179 c-1 -36 -11 -101 -23 -145 -14 -52 -22 -108 -23 -164 0
-71 -3 -85 -17 -88 -10 -2 -19 6 -24 20 -6 20 -10 15 -36 -41 -15 -35 -26 -66
-23 -69 7 -7 226 28 248 40 21 11 52 78 72 156 14 52 13 56 -10 103 -14 26
-38 63 -53 81 -31 36 -96 134 -105 158 -3 8 -6 -15 -6 -51z"/>
<path d="M6185 8220 c-13 -20 5 -25 105 -25 87 0 102 -3 127 -22 15 -13 45
-32 66 -43 21 -12 37 -28 37 -38 0 -44 -155 -157 -198 -145 -36 10 -73 50 -78
84 -2 19 -8 59 -12 89 -4 31 -11 53 -17 50 -15 -8 -8 -80 10 -100 12 -14 13
-19 4 -22 -23 -8 18 -96 51 -113 39 -20 50 -19 114 9 62 28 156 110 156 136 0
20 -77 86 -130 112 -59 28 -223 48 -235 28z"/>
<path d="M8522 8160 c0 -19 2 -27 5 -17 2 9 2 25 0 35 -3 9 -5 1 -5 -18z"/>
<path d="M5527 8089 c-8 -13 -23 -40 -33 -60 -15 -33 -15 -39 -2 -58 l15 -22
16 24 c23 36 39 105 29 124 -8 14 -11 13 -25 -8z"/>
<path d="M7122 8076 c-13 -21 -32 -38 -48 -42 -25 -6 -42 -16 -110 -61 -11 -7
-1 -6 21 3 60 24 89 31 103 27 6 -3 12 1 12 8 0 7 12 30 26 51 15 21 25 41 22
44 -3 2 -15 -11 -26 -30z"/>
<path d="M7265 8052 c-10 -26 -18 -55 -18 -65 1 -9 -2 -15 -7 -12 -5 3 -23
-14 -39 -37 -42 -59 -38 -54 -114 -142 -103 -118 -164 -256 -139 -312 7 -13
16 -24 20 -24 5 0 29 42 54 93 25 50 55 108 67 127 l23 35 -6 -32 c-3 -19 -1
-33 4 -33 6 0 10 5 10 11 0 6 23 52 51 102 27 51 45 86 38 80 -15 -15 -29 -17
-29 -3 0 5 22 42 48 82 60 89 75 127 65 156 -7 19 -10 16 -28 -26z"/>
<path d="M5666 7976 c-45 -56 -47 -84 -2 -33 28 31 52 77 41 77 -1 0 -19 -20
-39 -44z"/>
<path d="M8521 8004 c0 -11 3 -14 6 -6 3 7 2 16 -1 19 -3 4 -6 -2 -5 -13z"/>
<path d="M5124 7935 c-10 -8 -14 -15 -8 -15 6 0 17 7 24 15 16 19 9 19 -16 0z"/>
<path d="M7240 7895 c-7 -9 -11 -17 -9 -20 3 -2 10 5 17 15 14 24 10 26 -8 5z"/>
<path d="M5004 7873 c-6 -9 -25 -18 -44 -19 -19 -1 -40 -10 -47 -20 -17 -24
-11 -27 22 -12 24 11 29 10 41 -7 14 -18 16 -17 62 28 l47 47 -35 0 c-22 0
-39 -6 -46 -17z"/>
<path d="M5276 7874 c-10 -25 1 -29 14 -5 6 12 7 21 1 21 -5 0 -12 -7 -15 -16z"/>
<path d="M6914 7860 c-68 -35 -199 -129 -190 -137 5 -5 256 155 256 163 0 7
-6 4 -66 -26z"/>
<path d="M7940 7875 c-7 -9 -8 -15 -2 -15 5 0 12 7 16 15 3 8 4 15 2 15 -2 0
-9 -7 -16 -15z"/>
<path d="M6110 7860 c0 -5 9 -10 21 -10 11 0 17 5 14 10 -3 6 -13 10 -21 10
-8 0 -14 -4 -14 -10z"/>
<path d="M5672 7827 c-17 -18 -22 -34 -20 -58 l4 -34 23 48 c27 58 24 77 -7
44z"/>
<path d="M5303 7765 c-23 -35 -37 -65 -31 -67 6 -2 -19 -37 -55 -78 -36 -40
-63 -79 -60 -86 3 -7 -11 -33 -30 -56 -19 -24 -37 -56 -40 -73 -29 -157 -30
-175 -18 -201 17 -39 24 -23 26 59 1 39 6 81 13 92 10 17 11 18 12 3 0 -10 5
-18 10 -18 6 0 10 20 10 44 0 43 1 44 85 107 46 35 84 70 85 77 0 6 9 29 20
49 24 45 25 57 6 72 -16 13 -13 79 5 112 6 11 9 23 7 25 -3 2 -23 -25 -45 -61z
m11 -122 c-3 -17 -19 -47 -35 -66 -39 -48 -112 -105 -108 -85 5 20 139 191
145 185 2 -2 1 -18 -2 -34z"/>
<path d="M5118 7803 c-7 -9 -30 -28 -50 -43 l-37 -27 51 -11 c27 -7 54 -9 59
-6 10 6 49 78 49 91 0 15 -58 12 -72 -4z"/>
<path d="M6655 7795 c-43 -12 -152 -23 -252 -24 -31 -1 -49 -21 -19 -21 12 0
9 -12 -10 -55 -52 -113 -44 -139 58 -174 58 -20 68 -19 68 8 0 18 123 187 178
244 20 20 34 37 32 36 -3 0 -27 -7 -55 -14z"/>
<path d="M7688 7803 c7 -3 16 -2 19 1 4 3 -2 6 -13 5 -11 0 -14 -3 -6 -6z"/>
<path d="M6807 7689 c-169 -111 -187 -129 -187 -185 0 -27 32 -64 55 -64 8 0
20 -9 27 -20 7 -11 20 -20 29 -20 8 0 19 -3 23 -7 10 -10 86 -12 86 -2 0 4 -7
20 -15 35 -20 39 -19 100 4 149 10 22 48 78 85 124 56 72 75 102 64 101 -2 0
-79 -50 -171 -111z"/>
<path d="M7870 7769 c0 -4 -9 -11 -20 -14 -11 -4 -18 -11 -15 -16 10 -16 51
-10 69 10 16 18 16 19 -9 23 -14 3 -25 2 -25 -3z"/>
<path d="M9231 7764 c0 -11 3 -14 6 -6 3 7 2 16 -1 19 -3 4 -6 -2 -5 -13z"/>
<path d="M6255 7760 c3 -5 13 -10 21 -10 8 0 14 5 14 10 0 6 -9 10 -21 10 -11
0 -17 -4 -14 -10z"/>
<path d="M6300 7760 c0 -5 12 -10 28 -9 24 0 25 1 7 9 -27 12 -35 12 -35 0z"/>
<path d="M4975 7750 c-9 -15 -1 -23 21 -18 15 3 16 4 1 16 -11 9 -17 10 -22 2z"/>
<path d="M8508 7693 c7 -35 22 -39 22 -5 0 17 -5 29 -13 29 -9 0 -12 -9 -9
-24z"/>
<path d="M7576 7662 c-3 -6 -1 -14 5 -17 15 -10 25 3 12 16 -7 7 -13 7 -17 1z"/>
<path d="M8521 7604 c0 -11 3 -14 6 -6 3 7 2 16 -1 19 -3 4 -6 -2 -5 -13z"/>
<path d="M5670 7570 c0 -22 45 -71 83 -91 27 -15 41 2 25 32 -27 50 -46 69
-76 75 -28 6 -32 4 -32 -16z"/>
<path d="M8531 7544 c0 -11 3 -14 6 -6 3 7 2 16 -1 19 -3 4 -6 -2 -5 -13z"/>
<path d="M5472 7495 c0 -16 2 -22 5 -12 2 9 2 23 0 30 -3 6 -5 -1 -5 -18z"/>
<path d="M8532 7480 c0 -14 2 -19 5 -12 2 6 2 18 0 25 -3 6 -5 1 -5 -13z"/>
<path d="M8526 7412 c-3 -5 -2 -20 2 -33 8 -20 9 -20 15 -5 8 21 -7 54 -17 38z"/>
<path d="M5520 7343 c0 -39 2 -44 15 -33 8 7 15 25 15 40 0 16 -7 30 -15 34
-12 4 -15 -4 -15 -41z"/>
<path d="M6803 7307 c-28 -14 -30 -31 -4 -22 11 3 22 1 26 -5 3 -5 15 -10 26
-10 15 0 20 6 17 23 -3 25 -31 31 -65 14z"/>
<path d="M6742 7289 c2 -7 10 -15 17 -17 8 -3 12 1 9 9 -2 7 -10 15 -17 17 -8
3 -12 -1 -9 -9z"/>
<path d="M6685 7272 c-29 -6 -43 -22 -19 -22 20 0 52 16 44 23 -3 2 -14 1 -25
-1z"/>
<path d="M6570 7243 c-8 -3 -26 -10 -40 -15 -19 -7 -21 -11 -10 -18 8 -5 17
-5 20 0 3 4 16 10 29 11 14 2 26 10 29 17 4 13 -3 14 -28 5z"/>
<path d="M7924 6866 c-25 -19 -15 -27 20 -18 24 6 26 10 14 20 -12 9 -19 9
-34 -2z"/>
<path d="M10580 5886 c0 -8 5 -18 10 -21 6 -3 10 1 10 9 0 8 -4 18 -10 21 -5
3 -10 -1 -10 -9z"/>
<path d="M7545 5660 c3 -5 8 -10 11 -10 2 0 4 5 4 10 0 6 -5 10 -11 10 -5 0
-7 -4 -4 -10z"/>
<path d="M4841 5533 l1 -38 13 30 c13 30 11 45 -6 45 -5 0 -9 -17 -8 -37z"/>
<path d="M7500 5472 c0 -5 7 -9 15 -9 8 0 15 4 15 9 0 4 -7 8 -15 8 -8 0 -15
-4 -15 -8z"/>
<path d="M7544 5444 c3 -9 6 -18 6 -20 0 -2 5 -4 10 -4 6 0 10 9 10 20 0 12
-7 20 -16 20 -11 0 -14 -5 -10 -16z"/>
<path d="M6953 5361 c1 -15 4 -17 14 -9 17 14 16 28 -1 28 -8 0 -14 -9 -13
-19z"/>
<path d="M10370 5297 c8 -8 26 -18 40 -22 32 -9 15 7 -25 24 -26 11 -28 11
-15 -2z"/>
<path d="M7590 5249 c0 -11 4 -18 10 -14 5 3 7 12 3 20 -7 21 -13 19 -13 -6z"/>
<path d="M5932 5148 c-18 -18 -14 -59 8 -95 24 -40 40 -49 118 -63 75 -13 123
-3 176 39 l37 30 66 -31 c140 -66 283 -29 295 76 4 42 -20 44 -37 4 -22 -54
-40 -63 -119 -63 -58 0 -81 5 -123 28 -68 35 -90 34 -138 -5 -36 -30 -46 -33
-105 -33 -101 0 -150 31 -150 95 0 24 -13 33 -28 18z"/>
<path d="M5812 4884 c-24 -30 -36 -53 -34 -68 2 -17 -8 -33 -38 -58 -33 -27
-42 -42 -47 -75 l-5 -41 38 13 c38 13 39 15 54 86 14 69 17 74 43 77 19 2 31
11 37 27 7 17 18 25 42 27 27 2 33 7 33 27 0 22 -5 25 -43 27 -39 2 -45 -1
-80 -42z"/>
<path d="M5971 4896 c-9 -11 -8 -15 5 -20 20 -8 39 7 30 23 -10 15 -21 14 -35
-3z"/>
<path d="M6023 4840 c-12 -5 -27 -18 -33 -30 -9 -16 -15 -18 -30 -10 -31 16
-50 12 -60 -15 -5 -14 -16 -25 -24 -25 -25 0 -37 -36 -40 -116 -2 -41 -6 -78
-9 -81 -4 -3 -17 -6 -29 -7 -20 -1 -24 -9 -32 -53 -10 -59 3 -88 36 -80 16 5
18 -2 18 -57 0 -50 4 -63 20 -73 10 -7 25 -10 33 -7 11 4 14 -10 15 -68 2
-145 4 -160 16 -144 6 8 24 16 39 18 29 3 34 11 77 125 8 21 17 30 26 26 27
-10 42 17 49 92 7 75 -2 195 -14 178 -3 -6 -16 -15 -28 -21 -20 -11 -23 -7
-52 62 -17 41 -31 82 -31 91 0 24 19 55 33 55 7 0 18 13 24 30 13 34 38 48 62
33 17 -11 57 -102 73 -168 5 -22 9 -82 8 -132 -2 -92 -1 -93 33 -135 19 -24
50 -77 70 -119 20 -42 57 -99 81 -126 l45 -50 -59 -26 c-59 -25 -82 -49 -63
-68 6 -6 23 -4 46 6 64 26 67 23 46 -46 -21 -67 -25 -162 -8 -206 5 -15 24
-42 41 -60 30 -31 34 -32 90 -26 39 4 67 2 82 -7 21 -11 31 -9 71 11 47 24
157 123 168 152 4 10 13 17 22 17 17 0 22 65 5 75 -6 4 -7 12 -1 22 4 9 6 25
3 37 -3 15 5 10 31 -19 20 -22 39 -47 42 -56 4 -11 16 -16 37 -15 29 1 32 -3
54 -59 13 -33 23 -79 23 -102 1 -32 4 -41 15 -37 9 3 18 -7 26 -28 10 -24 14
-28 17 -15 10 40 21 2 16 -58 -4 -55 -2 -65 11 -65 20 0 20 -25 1 -105 -20
-81 -19 -88 7 -80 20 7 21 5 14 -49 -9 -80 8 -69 29 19 18 80 16 153 -10 359
-12 96 -12 102 11 170 13 38 24 75 24 83 0 23 -30 14 -42 -12 -14 -30 -33 -32
-50 -5 -7 11 -18 20 -23 20 -6 0 -19 14 -28 30 -10 17 -22 30 -27 30 -5 0 -35
55 -68 123 -48 100 -80 149 -178 272 -66 83 -142 172 -170 199 -68 67 -183
160 -202 162 -8 2 -33 21 -55 44 -33 33 -47 41 -71 39 -17 -2 -36 0 -43 4 -6
4 -18 0 -27 -9 -21 -20 -36 -10 -36 27 0 31 -9 36 -28 17 -9 -9 -21 -4 -51 20
-22 18 -41 32 -43 31 -2 0 -13 -4 -25 -9z m325 -421 c20 -38 72 -164 72 -175
0 -9 -39 -3 -45 6 -3 6 -14 10 -24 10 -11 0 -31 22 -53 58 -54 88 -60 101 -52
124 6 20 8 19 29 -15 26 -43 36 -39 28 10 -8 49 14 40 45 -18z m212 34 c0 -5
-4 -15 -10 -23 -11 -18 -25 -7 -17 15 6 15 27 21 27 8z m-10 -116 c5 -54 8
-60 68 -129 29 -34 -17 -21 -49 13 -26 27 -35 26 -30 -3 2 -14 -26 -8 -40 8
-11 13 -10 17 4 25 24 14 21 30 -13 75 -36 48 -40 82 -5 41 l25 -28 6 31 c10
48 28 30 34 -33z m97 -99 c-3 -8 -6 -5 -6 6 -1 11 2 17 5 13 3 -3 4 -12 1 -19z
m-92 -65 c21 -8 69 -107 54 -112 -6 -2 -21 7 -35 20 -30 28 -44 17 -23 -20
l16 -27 -44 6 c-24 4 -45 9 -47 11 -24 29 -66 95 -66 106 0 23 33 14 67 -19
l33 -32 1 30 c1 16 1 32 0 37 -1 9 22 9 44 0z m128 -52 c25 -21 77 -99 77
-114 0 -7 14 -36 30 -66 17 -30 30 -56 30 -58 0 -1 -13 11 -30 29 -16 17 -30
35 -30 40 0 11 -71 101 -83 107 -9 3 -57 77 -57 86 0 10 44 -6 63 -24z m17
-323 c0 -7 -5 -20 -10 -28 -8 -12 -10 -9 -10 13 0 15 5 27 10 27 6 0 10 -6 10
-12z m37 -50 c-3 -8 -6 -5 -6 6 -1 11 2 17 5 13 3 -3 4 -12 1 -19z"/>
<path d="M6521 4124 c0 -11 3 -14 6 -6 3 7 2 16 -1 19 -3 4 -6 -2 -5 -13z"/>
<path d="M5523 4701 c-26 -21 -68 -61 -93 -87 l-45 -49 55 51 c30 28 72 61 92
75 21 13 40 30 43 37 7 18 1 15 -52 -27z"/>
<path d="M6050 4635 c0 -5 5 -27 10 -47 13 -45 34 -64 24 -21 -8 32 -33 83
-34 68z"/>
<path d="M7565 4570 c-3 -5 -1 -10 4 -10 6 0 11 5 11 10 0 6 -2 10 -4 10 -3 0
-8 -4 -11 -10z"/>
<path d="M5539 4462 c-18 -16 -33 -40 -35 -56 -1 -15 -19 -49 -39 -77 -42 -58
-106 -189 -99 -201 8 -12 44 10 44 27 0 7 7 26 14 42 21 40 29 66 27 82 -4 22
23 6 29 -18 4 -19 9 -14 38 34 32 53 72 154 72 182 0 20 -17 16 -51 -15z"/>
<path d="M5470 4405 c-7 -9 -10 -18 -7 -21 3 -3 10 4 17 15 13 25 8 27 -10 6z"/>
<path d="M4831 4314 c0 -11 3 -14 6 -6 3 7 2 16 -1 19 -3 4 -6 -2 -5 -13z"/>
<path d="M6170 4285 c-7 -40 -5 -84 3 -76 4 4 7 28 4 52 -2 24 -5 35 -7 24z"/>
<path d="M5322 4202 c-27 -49 -54 -122 -44 -122 10 1 74 140 70 152 -2 5 -14
-8 -26 -30z"/>
<path d="M5086 4123 c-4 -17 -14 -34 -22 -37 -9 -3 -12 -10 -9 -16 3 -5 -3
-10 -14 -10 -29 0 -26 -18 3 -26 60 -15 91 12 68 60 -6 11 -13 30 -15 41 -2
15 -5 12 -11 -12z"/>
<path d="M10836 3998 c2 -18 10 -46 18 -63 8 -16 17 -39 21 -49 12 -41 31 15
27 82 -2 25 -35 62 -56 62 -9 0 -12 -10 -10 -32z"/>
<path d="M4925 4004 c-5 -1 -31 -5 -57 -9 -60 -8 -62 -26 -6 -51 23 -10 45
-19 48 -19 3 0 11 -4 19 -9 23 -15 34 17 11 33 -23 16 -27 33 -5 25 9 -4 15 0
15 9 0 18 -10 26 -25 21z"/>
<path d="M11684 3985 c-4 -8 -12 -15 -20 -15 -8 0 -14 -3 -14 -7 1 -19 18 -31
52 -35 l36 -4 -19 38 c-21 42 -27 45 -35 23z"/>
<path d="M4990 3960 c0 -5 14 -10 30 -10 17 0 30 5 30 10 0 6 -13 10 -30 10
-16 0 -30 -4 -30 -10z"/>
<path d="M6823 3632 c-10 -159 -48 -403 -72 -458 -17 -36 -22 -41 -45 -37 -32
7 -56 -12 -56 -43 0 -13 -4 -24 -9 -24 -4 0 -6 -11 -4 -24 6 -31 -41 -79 -125
-126 -64 -36 -74 -56 -44 -82 23 -21 62 -32 62 -19 0 6 16 11 35 11 18 0 38 6
42 14 4 7 18 19 31 25 15 8 21 18 17 30 -4 13 0 17 17 17 19 -1 22 4 23 34 0
27 14 53 65 120 51 67 71 104 97 180 41 121 45 260 8 260 -8 0 -14 24 -17 71
-6 77 -22 110 -25 51z m-16 -434 c-3 -8 -6 -5 -6 6 -1 11 2 17 5 13 3 -3 4
-12 1 -19z m-26 -71 c-8 -8 -11 -5 -11 9 0 27 14 41 18 19 2 -9 -1 -22 -7 -28z"/>
<path d="M5470 3641 c-7 -15 -7 -21 0 -21 12 0 25 28 17 36 -3 3 -10 -4 -17
-15z"/>
<path d="M5890 3574 c0 -8 5 -12 10 -9 6 3 10 10 10 16 0 5 -4 9 -10 9 -5 0
-10 -7 -10 -16z"/>
<path d="M5970 3229 c0 -14 63 -39 98 -39 37 0 92 19 92 32 0 6 -8 7 -17 3
-41 -16 -84 -16 -127 -2 -27 9 -46 12 -46 6z"/>
<path d="M6950 3183 c0 -7 -11 -18 -24 -23 -18 -6 -28 -21 -36 -52 -21 -80
-31 -107 -53 -134 -12 -16 -22 -33 -22 -39 -1 -5 -9 -36 -19 -69 -13 -43 -33
-74 -72 -117 -52 -57 -65 -79 -44 -79 9 0 28 20 108 110 17 19 32 29 32 23 0
-26 41 -12 83 30 43 40 44 45 50 117 4 41 13 96 21 123 16 55 11 124 -10 124
-8 0 -14 -6 -14 -14z m-100 -358 c0 -8 -4 -15 -10 -15 -5 0 -7 7 -4 15 4 8 8
15 10 15 2 0 4 -7 4 -15z"/>
<path d="M6506 3066 c3 -9 11 -16 16 -16 13 0 5 23 -10 28 -7 2 -10 -2 -6 -12z"/>
</g>
</svg>
